<svg width="29" height="28" viewBox="0 0 29 28" fill="none" xmlns="http://www.w3.org/2000/svg">
<rect x="0.898438" y="0.317627" width="27.3066" height="27.3066" rx="13.6533" fill="white"/>
<path d="M14.5533 10.4224C12.5881 10.4224 11.0029 12.0067 11.0029 13.9709C11.0029 15.9352 12.5881 17.5195 14.5533 17.5195C16.5185 17.5195 18.1037 15.9352 18.1037 13.9709C18.1037 12.0067 16.5185 10.4224 14.5533 10.4224ZM14.5533 16.278C13.2833 16.278 12.2451 15.2434 12.2451 13.9709C12.2451 12.6985 13.2802 11.6639 14.5533 11.6639C15.8264 11.6639 16.8615 12.6985 16.8615 13.9709C16.8615 15.2434 15.8233 16.278 14.5533 16.278ZM19.077 10.2772C19.077 10.7374 18.7063 11.1049 18.2489 11.1049C17.7885 11.1049 17.4208 10.7343 17.4208 10.2772C17.4208 9.82016 17.7916 9.44956 18.2489 9.44956C18.7063 9.44956 19.077 9.82016 19.077 10.2772ZM21.4285 11.1173C21.376 10.0086 21.1226 9.02645 20.31 8.21729C19.5004 7.40814 18.5178 7.15489 17.4085 7.0993C16.2652 7.03445 12.8384 7.03445 11.6951 7.0993C10.5889 7.1518 9.60625 7.40505 8.79358 8.21421C7.98092 9.02336 7.73063 10.0055 7.67501 11.1142C7.61012 12.2569 7.61012 15.6819 7.67501 16.8246C7.72754 17.9333 7.98092 18.9154 8.79358 19.7246C9.60625 20.5338 10.5858 20.787 11.6951 20.8426C12.8384 20.9074 16.2652 20.9074 17.4085 20.8426C18.5178 20.7901 19.5004 20.5368 20.31 19.7246C21.1195 18.9154 21.3729 17.9333 21.4285 16.8246C21.4934 15.6819 21.4934 12.26 21.4285 11.1173ZM19.9515 18.0507C19.7105 18.656 19.2439 19.1224 18.6352 19.3663C17.7236 19.7277 15.5606 19.6443 14.5533 19.6443C13.546 19.6443 11.3799 19.7246 10.4714 19.3663C9.86581 19.1254 9.39922 18.6591 9.15511 18.0507C8.79358 17.1396 8.87701 14.9778 8.87701 13.9709C8.87701 12.9641 8.79667 10.7992 9.15511 9.8912C9.39613 9.28587 9.86272 8.81953 10.4714 8.57555C11.383 8.21421 13.546 8.29759 14.5533 8.29759C15.5606 8.29759 17.7267 8.21729 18.6352 8.57555C19.2408 8.81644 19.7074 9.28279 19.9515 9.8912C20.313 10.8023 20.2296 12.9641 20.2296 13.9709C20.2296 14.9778 20.313 17.1427 19.9515 18.0507Z" fill="black"/>
</svg>
