<svg width="28" height="28" viewBox="0 0 28 28" fill="none" xmlns="http://www.w3.org/2000/svg">
<rect x="0.591797" y="0.317627" width="27.3066" height="27.3066" rx="13.6533" fill="white"/>
<path d="M18.1519 14.3644C18.1457 13.231 18.6584 12.3755 19.6961 11.7454C19.1154 10.9147 18.2383 10.4576 17.0802 10.368C15.9838 10.2816 14.7855 11.0073 14.347 11.0073C13.8837 11.0073 12.8213 10.3989 11.9875 10.3989C10.2641 10.4267 8.43274 11.7732 8.43274 14.5126C8.43274 15.3218 8.58098 16.1587 8.87747 17.0204C9.27278 18.1538 10.6996 20.9334 12.1882 20.887C12.9665 20.8685 13.5162 20.3342 14.5292 20.3342C15.5113 20.3342 16.0209 20.887 16.8887 20.887C18.3897 20.8654 19.6806 18.3391 20.0574 17.2026C18.0438 16.2545 18.1519 14.4231 18.1519 14.3644ZM16.4038 9.29327C17.247 8.29264 17.1698 7.38157 17.1451 7.0542C16.4008 7.09744 15.5391 7.56069 15.048 8.13204C14.5076 8.74354 14.1895 9.5002 14.2574 10.3526C15.0635 10.4144 15.7985 10.0005 16.4038 9.29327Z" fill="black"/>
</svg>
