<svg width="28" height="28" viewBox="0 0 28 28" fill="none" xmlns="http://www.w3.org/2000/svg">
<rect x="0.285156" y="0.317627" width="27.3066" height="27.3066" rx="13.6533" fill="white"/>
<path d="M9.78557 12.3852V15.9615C9.78557 16.4371 9.41168 16.817 8.93582 16.817C8.46305 16.817 8.00574 16.434 8.00574 15.9615V12.3852C8.00574 11.9188 8.46305 11.5359 8.93582 11.5359C9.40241 11.5359 9.78557 11.9188 9.78557 12.3852ZM10.1193 17.2339C10.1193 17.7404 10.5272 18.1481 11.0339 18.1481H11.6488L11.6581 20.0351C11.6581 21.1747 13.3638 21.1654 13.3638 20.0351V18.1481H14.5132V20.0351C14.5132 21.1685 16.2282 21.1716 16.2282 20.0351V18.1481H16.8524C17.3529 18.1481 17.7608 17.7404 17.7608 17.2339V11.6934H10.1193V17.2339ZM17.7824 11.3938H10.0853C10.0853 10.072 10.8763 8.92311 12.0505 8.32396L11.4603 7.23377C11.3738 7.08244 11.5932 6.9867 11.6674 7.11641L12.2668 8.21587C13.3452 7.73717 14.5843 7.76188 15.6133 8.21587L16.2096 7.1195C16.2869 6.9867 16.5032 7.08552 16.4167 7.23685L15.8265 8.32396C16.9914 8.92311 17.7824 10.072 17.7824 11.3938ZM12.5078 9.67976C12.5078 9.50372 12.3657 9.35548 12.1834 9.35548C12.0073 9.35548 11.8682 9.50372 11.8682 9.67976C11.8682 9.8558 12.0104 10.004 12.1834 10.004C12.3657 10.004 12.5078 9.8558 12.5078 9.67976ZM16.0119 9.67976C16.0119 9.50372 15.8697 9.35548 15.6967 9.35548C15.5144 9.35548 15.3723 9.50372 15.3723 9.67976C15.3723 9.8558 15.5144 10.004 15.6967 10.004C15.8697 10.004 16.0119 9.8558 16.0119 9.67976ZM18.9412 11.5359C18.4746 11.5359 18.0914 11.9096 18.0914 12.3852V15.9615C18.0914 16.4371 18.4746 16.817 18.9412 16.817C19.417 16.817 19.8713 16.434 19.8713 15.9615V12.3852C19.8713 11.9096 19.414 11.5359 18.9412 11.5359Z" fill="black"/>
</svg>
